<svg width="20" height="20" viewBox="0 0 20 20" fill="none" xmlns="http://www.w3.org/2000/svg">
<path d="M19.1654 10.0007C19.1654 15.0633 15.0613 19.1673 9.9987 19.1673C4.93609 19.1673 0.832031 15.0633 0.832031 10.0007C0.832031 4.93804 4.93609 0.833984 9.9987 0.833984C15.0613 0.833984 19.1654 4.93804 19.1654 10.0007Z" fill="#505771"/>
<path d="M13.8624 7.19765C14.1553 6.90475 14.1553 6.42988 13.8624 6.13699C13.5695 5.84409 13.0946 5.84409 12.8017 6.13699L13.8624 7.19765ZM6.13503 12.8037C5.84214 13.0965 5.84214 13.5714 6.13503 13.8643C6.42793 14.1572 6.9028 14.1572 7.19569 13.8643L6.13503 12.8037ZM7.19569 6.13699C6.9028 5.84409 6.42793 5.84409 6.13503 6.13699C5.84214 6.42988 5.84214 6.90475 6.13503 7.19765L7.19569 6.13699ZM12.8017 13.8643C13.0946 14.1572 13.5695 14.1572 13.8624 13.8643C14.1553 13.5714 14.1553 13.0965 13.8624 12.8037L12.8017 13.8643ZM12.8017 6.13699L9.46837 9.47032L10.529 10.531L13.8624 7.19765L12.8017 6.13699ZM9.46837 9.47032L6.13503 12.8037L7.19569 13.8643L10.529 10.531L9.46837 9.47032ZM6.13503 7.19765L9.46837 10.531L10.529 9.47032L7.19569 6.13699L6.13503 7.19765ZM9.46837 10.531L12.8017 13.8643L13.8624 12.8037L10.529 9.47032L9.46837 10.531ZM18.4154 10.0007C18.4154 14.649 14.6471 18.4173 9.9987 18.4173V19.9173C15.4755 19.9173 19.9154 15.4775 19.9154 10.0007H18.4154ZM9.9987 18.4173C5.3503 18.4173 1.58203 14.649 1.58203 10.0007H0.0820312C0.0820312 15.4775 4.52187 19.9173 9.9987 19.9173V18.4173ZM1.58203 10.0007C1.58203 5.35225 5.3503 1.58398 9.9987 1.58398V0.0839844C4.52187 0.0839844 0.0820312 4.52383 0.0820312 10.0007H1.58203ZM9.9987 1.58398C14.6471 1.58398 18.4154 5.35225 18.4154 10.0007H19.9154C19.9154 4.52383 15.4755 0.0839844 9.9987 0.0839844V1.58398Z" fill="#505771"/>
<path d="M13.865 7.19635C14.1579 6.90345 14.1579 6.42858 13.865 6.13569C13.5721 5.84279 13.0972 5.84279 12.8043 6.13569L13.865 7.19635ZM6.13764 12.8024C5.84475 13.0952 5.84475 13.5701 6.13764 13.863C6.43053 14.1559 6.90541 14.1559 7.1983 13.863L6.13764 12.8024ZM7.1983 6.13569C6.90541 5.84279 6.43053 5.84279 6.13764 6.13569C5.84475 6.42858 5.84475 6.90345 6.13764 7.19635L7.1983 6.13569ZM12.8043 13.863C13.0972 14.1559 13.5721 14.1559 13.865 13.863C14.1579 13.5701 14.1579 13.0952 13.865 12.8024L12.8043 13.863ZM12.8043 6.13569L9.47097 9.46902L10.5316 10.5297L13.865 7.19635L12.8043 6.13569ZM9.47097 9.46902L6.13764 12.8024L7.1983 13.863L10.5316 10.5297L9.47097 9.46902ZM6.13764 7.19635L9.47097 10.5297L10.5316 9.46902L7.1983 6.13569L6.13764 7.19635ZM9.47097 10.5297L12.8043 13.863L13.865 12.8024L10.5316 9.46902L9.47097 10.5297Z" fill="white"/>
</svg>
