<svg width="8" height="12" viewBox="0 0 8 12" fill="none" xmlns="http://www.w3.org/2000/svg">
<path d="M4.75 1C4.75 0.585786 4.41421 0.25 4 0.25C3.58579 0.25 3.25 0.585786 3.25 1L4.75 1ZM4 11L3.4955 11.555C3.78156 11.815 4.21844 11.815 4.5045 11.555L4 11ZM1.5045 7.71777C1.19801 7.43914 0.723675 7.46173 0.445045 7.76822C0.166415 8.07472 0.189002 8.54905 0.495495 8.82768L1.5045 7.71777ZM7.5045 8.82768C7.811 8.54905 7.83358 8.07472 7.55495 7.76822C7.27632 7.46173 6.80199 7.43914 6.49549 7.71777L7.5045 8.82768ZM3.25 1L3.25 11L4.75 11L4.75 1L3.25 1ZM4.5045 10.445L1.5045 7.71777L0.495495 8.82768L3.4955 11.555L4.5045 10.445ZM4.5045 11.555L7.5045 8.82768L6.49549 7.71777L3.4955 10.445L4.5045 11.555Z" fill="#D3454D"/>
</svg>
