<svg width="16" height="13" viewBox="0 0 16 13" fill="none" xmlns="http://www.w3.org/2000/svg">
<path d="M1.41797 7.8527C1.41797 7.43849 1.08218 7.1027 0.667969 7.1027C0.253755 7.1027 -0.0820312 7.43849 -0.0820312 7.8527H1.41797ZM16.0846 7.8527C16.0846 7.43849 15.7488 7.1027 15.3346 7.1027C14.9204 7.1027 14.5846 7.43849 14.5846 7.8527H16.0846ZM8.7513 1.02344C8.7513 0.609224 8.41552 0.273438 8.0013 0.273438C7.58709 0.273438 7.2513 0.609224 7.2513 1.02344H8.7513ZM8.0013 7.8527L7.46462 8.37661C7.60576 8.52118 7.79926 8.6027 8.0013 8.6027C8.20335 8.6027 8.39685 8.52118 8.53798 8.37661L8.0013 7.8527ZM10.538 6.32783C10.8273 6.03143 10.8216 5.55659 10.5252 5.26724C10.2288 4.9779 9.75396 4.98362 9.46462 5.28002L10.538 6.32783ZM6.53798 5.28002C6.24864 4.98362 5.7738 4.9779 5.4774 5.26724C5.181 5.55659 5.17528 6.03143 5.46462 6.32783L6.53798 5.28002ZM-0.0820312 7.8527V10.5844H1.41797V7.8527H-0.0820312ZM2.0013 12.7003H14.0013V11.2003H2.0013V12.7003ZM16.0846 10.5844V7.8527H14.5846V10.5844H16.0846ZM7.2513 1.02344V7.8527H8.7513V1.02344H7.2513ZM8.53798 8.37661L10.538 6.32783L9.46462 5.28002L7.46462 7.3288L8.53798 8.37661ZM8.53798 7.3288L6.53798 5.28002L5.46462 6.32783L7.46462 8.37661L8.53798 7.3288ZM14.0013 12.7003C15.1688 12.7003 16.0846 11.7358 16.0846 10.5844H14.5846C14.5846 10.9417 14.3065 11.2003 14.0013 11.2003V12.7003ZM-0.0820312 10.5844C-0.0820312 11.7358 0.833774 12.7003 2.0013 12.7003V11.2003C1.69607 11.2003 1.41797 10.9417 1.41797 10.5844H-0.0820312Z" fill="white"/>
</svg>
