<svg width="8" height="12" viewBox="0 0 8 12" fill="none" xmlns="http://www.w3.org/2000/svg">
<path d="M4.75 11C4.75 11.4142 4.41421 11.75 4 11.75C3.58579 11.75 3.25 11.4142 3.25 11L4.75 11ZM4 1L3.4955 0.445045C3.78156 0.184985 4.21844 0.184985 4.5045 0.445045L4 1ZM1.5045 4.28223C1.19801 4.56086 0.723675 4.53827 0.445045 4.23178C0.166415 3.92528 0.189002 3.45095 0.495495 3.17232L1.5045 4.28223ZM7.5045 3.17232C7.811 3.45095 7.83358 3.92528 7.55495 4.23178C7.27632 4.53827 6.80199 4.56086 6.49549 4.28223L7.5045 3.17232ZM3.25 11L3.25 1L4.75 1L4.75 11L3.25 11ZM4.5045 1.55495L1.5045 4.28223L0.495495 3.17232L3.4955 0.445045L4.5045 1.55495ZM4.5045 0.445045L7.5045 3.17232L6.49549 4.28223L3.4955 1.55495L4.5045 0.445045Z" fill="#33BC84"/>
</svg>
