<svg width="17" height="12" viewBox="0 0 17 12" fill="none" xmlns="http://www.w3.org/2000/svg">
<path d="M2.19439 5.46967C1.9015 5.17678 1.42663 5.17678 1.13373 5.46967C0.840839 5.76256 0.840839 6.23744 1.13373 6.53033L2.19439 5.46967ZM6.41406 10.75L5.88373 11.2803C6.17663 11.5732 6.6515 11.5732 6.94439 11.2803L6.41406 10.75ZM16.4444 1.78033C16.7373 1.48744 16.7373 1.01256 16.4444 0.71967C16.1515 0.426777 15.6766 0.426777 15.3837 0.71967L16.4444 1.78033ZM1.13373 6.53033L5.88373 11.2803L6.94439 10.2197L2.19439 5.46967L1.13373 6.53033ZM6.94439 11.2803L16.4444 1.78033L15.3837 0.71967L5.88373 10.2197L6.94439 11.2803Z" fill="white"/>
</svg>
